<?xml version="1.0" standalone="no"?>
<!DOCTYPE svg PUBLIC "-//W3C//DTD SVG 20010904//EN"
 "http://www.w3.org/TR/2001/REC-SVG-20010904/DTD/svg10.dtd">
<svg version="1.0" xmlns="http://www.w3.org/2000/svg"
 width="512.000000pt" height="512.000000pt" viewBox="0 0 512.000000 512.000000"
 preserveAspectRatio="xMidYMid meet">

<g transform="translate(0.000000,512.000000) scale(0.100000,-0.100000)"
fill="#33F3FF" stroke="none">
<path d="M2139 5013 c-86 -36 -126 -105 -126 -216 -1 -71 2 -82 31 -125 34
-51 90 -94 111 -86 22 9 37 -30 20 -52 -22 -29 -20 -133 3 -150 16 -12 16 -14
0 -44 -19 -33 -26 -150 -9 -150 17 0 21 -33 6 -56 -18 -27 -21 -134 -4 -151 8
-8 8 -17 0 -31 -16 -30 -15 -32 24 -32 45 0 87 21 109 54 21 33 22 141 1 162
-8 9 -15 22 -15 29 0 7 7 20 15 29 11 10 15 37 15 97 l0 83 48 -45 c26 -26 55
-49 65 -52 9 -4 17 -13 17 -20 0 -8 7 -20 15 -27 10 -8 15 -31 15 -66 0 -30 4
-54 9 -54 17 0 19 -28 5 -55 -8 -15 -14 -52 -14 -81 l0 -54 80 0 80 0 0 64 c0
36 -4 68 -10 71 -5 3 -10 17 -10 30 0 13 5 27 10 30 15 10 12 118 -5 151 -8
16 -78 92 -156 169 l-140 140 23 18 c56 43 75 66 81 95 4 18 17 46 29 62 21
28 21 34 10 88 -15 74 -58 136 -96 140 -18 2 -30 11 -33 23 -3 10 -9 19 -13
19 -9 0 -36 -31 -32 -37 7 -10 0 -23 -12 -23 -8 0 -28 -11 -43 -25 -26 -22
-26 -24 -7 -25 30 0 84 -71 84 -110 0 -42 -39 -80 -83 -80 -25 0 -41 9 -66 34
-28 29 -32 39 -28 71 3 20 14 47 26 59 12 12 21 29 21 37 0 8 4 19 10 25 7 7
4 22 -8 46 l-19 36 -34 -15z"/>
<path d="M3525 5020 c-3 -5 1 -10 9 -10 9 0 16 5 16 10 0 6 -4 10 -9 10 -6 0
-13 -4 -16 -10z"/>
<path d="M902 4991 c-69 -51 -105 -124 -82 -167 11 -20 11 -28 1 -48 -32 -59
51 -168 151 -200 60 -19 118 -15 118 8 0 7 15 25 33 42 l32 29 -30 -34 c-26
-30 -27 -32 -7 -22 25 13 52 1 52 -23 0 -6 79 -89 175 -185 135 -134 175 -180
175 -199 0 -14 8 -34 17 -44 17 -19 17 -21 0 -50 -12 -21 -17 -52 -17 -104 l0
-74 58 0 c80 0 102 23 102 105 0 40 -5 64 -16 76 -15 17 -15 20 0 43 9 15 16
46 16 73 l0 48 -202 201 c-112 110 -211 204 -221 207 -24 9 -20 64 5 90 10 10
18 26 18 36 0 36 -33 120 -59 151 l-26 31 -60 -27 c-33 -15 -61 -28 -63 -29
-5 -4 28 -74 38 -80 5 -3 10 -23 10 -44 0 -48 -32 -81 -81 -81 -44 0 -114 60
-106 90 3 11 1 18 -4 14 -22 -13 -6 25 30 72 22 29 35 56 31 60 -5 5 -10 20
-12 34 -4 35 -28 35 -76 1z m338 -254 c0 -2 -12 -14 -27 -28 l-26 -24 19 27
c16 23 34 36 34 25z"/>
<path d="M1120 5009 c0 -5 5 -7 10 -4 6 3 10 8 10 11 0 2 -4 4 -10 4 -5 0 -10
-5 -10 -11z"/>
<path d="M2727 4979 c-49 -40 -69 -79 -61 -119 5 -21 2 -36 -10 -49 -37 -41
25 -168 103 -212 l41 -23 0 -73 c0 -40 4 -73 9 -73 17 0 21 -33 6 -56 -16 -25
-21 -144 -6 -144 17 0 21 -33 6 -56 -18 -28 -20 -126 -3 -154 10 -16 10 -24 0
-40 -6 -11 -12 -29 -12 -40 0 -23 29 -27 60 -8 16 10 24 10 40 0 33 -21 60
-15 60 12 0 14 -4 28 -10 31 -5 3 -10 17 -10 30 0 13 5 27 10 30 12 8 13 135
1 135 -17 0 -21 33 -6 56 16 25 21 144 6 144 -17 0 -21 33 -6 56 9 15 15 47
15 86 l0 63 40 23 c22 13 54 42 71 65 25 35 29 47 24 78 -5 29 -3 39 11 47 15
8 15 15 4 60 -6 28 -18 56 -26 63 -8 6 -14 17 -14 23 0 7 -11 23 -24 35 -19
18 -28 20 -43 13 -10 -6 -34 -10 -54 -9 -19 0 -55 -9 -79 -21 -27 -13 -49 -18
-58 -13 -9 5 -11 11 -4 15 7 4 1 16 -14 31 -14 14 -26 25 -27 25 -1 0 -19 -14
-40 -31z m138 -89 c3 -5 16 -10 29 -10 33 0 65 -39 68 -84 3 -52 -32 -84 -85
-78 -44 5 -73 35 -80 84 -5 31 -1 44 20 68 26 32 38 36 48 20z"/>
<path d="M3630 4997 c0 -17 -21 -27 -58 -27 -32 -1 -118 -23 -128 -33 -4 -4
-18 -7 -32 -7 -21 0 -22 2 -12 15 7 8 8 15 3 15 -18 0 -54 -32 -70 -63 -16
-31 -16 -32 3 -18 10 8 2 -3 -18 -23 -42 -41 -44 -52 -24 -120 18 -58 61 -116
86 -116 10 0 26 -10 34 -22 12 -17 18 -19 29 -9 12 9 16 8 20 -8 3 -14 -31
-54 -137 -160 -78 -77 -149 -141 -158 -141 -41 0 -48 -11 -48 -71 0 -32 4 -59
9 -59 17 0 21 -33 6 -56 -10 -16 -15 -48 -15 -99 l0 -75 58 0 c81 0 102 22
102 108 0 34 -4 62 -9 62 -19 0 -23 41 -7 59 9 10 16 29 16 42 0 17 24 48 80
104 l80 80 0 -47 c0 -32 5 -48 15 -52 8 -3 15 -16 15 -29 0 -14 -7 -30 -15
-37 -17 -14 -22 -140 -6 -140 17 0 21 -33 6 -56 -8 -13 -15 -40 -15 -60 0 -31
3 -35 18 -29 9 4 22 7 27 6 6 -1 34 -4 63 -7 l52 -6 0 45 c0 25 -4 49 -10 52
-5 3 -10 17 -10 30 0 13 5 27 10 30 6 3 10 35 10 71 0 36 -4 64 -10 64 -5 0
-10 13 -10 29 0 17 5 33 10 36 12 8 13 135 1 135 -17 0 -21 33 -6 56 8 13 15
43 15 68 0 36 4 46 21 51 32 10 88 64 109 105 14 28 18 54 16 118 -3 71 -7 87
-31 123 -34 49 -85 88 -85 66z m-41 -151 c29 -30 33 -39 27 -69 -8 -42 -41
-72 -85 -76 -27 -2 -38 3 -62 31 -55 64 -27 148 51 148 28 0 43 -8 69 -34z"/>
<path d="M1899 4465 c-44 -24 -59 -58 -59 -130 0 -37 4 -65 10 -65 6 0 10 -13
10 -29 0 -17 -4 -33 -10 -36 -12 -8 -13 -135 -1 -135 17 0 21 -33 6 -56 -8
-13 -15 -40 -15 -60 0 -31 3 -35 18 -29 9 4 22 7 27 6 6 -1 34 -4 63 -7 l52
-6 0 45 c0 25 -4 49 -10 52 -5 3 -10 17 -10 30 0 13 5 27 10 30 6 3 10 35 10
71 0 36 -4 64 -10 64 -5 0 -10 13 -10 29 0 17 5 33 10 36 14 8 13 128 -1 142
-8 8 -8 17 0 31 6 11 11 23 11 26 0 12 -76 5 -101 -9z"/>
<path d="M262 3750 c-76 -18 -160 -103 -165 -166 -2 -26 1 -29 33 -32 19 -2
40 -8 47 -13 7 -7 14 -6 18 1 3 6 11 8 16 4 5 -3 29 12 53 33 24 21 54 39 67
40 25 2 62 -24 54 -38 -3 -4 -1 -10 5 -14 20 -12 11 -75 -15 -100 -23 -24 -82
-35 -98 -18 -10 9 -71 8 -87 -2 -12 -7 -29 -11 -73 -14 -15 -1 -16 -4 -7 -21
6 -12 22 -25 36 -30 14 -6 24 -17 24 -30 0 -21 24 -35 103 -60 39 -12 112 -6
123 11 3 5 10 6 16 3 7 -4 8 -2 4 4 -9 15 44 88 129 179 57 61 71 71 76 56 4
-10 0 -25 -8 -34 -12 -15 -11 -20 10 -43 21 -22 33 -26 80 -26 31 0 59 5 62
10 3 6 19 10 36 10 16 0 29 -4 29 -10 0 -6 28 -10 64 -10 36 0 68 5 71 10 3 6
17 10 30 10 13 0 27 -4 30 -10 3 -5 34 -10 69 -10 84 0 106 22 106 103 l0 57
-85 0 c-50 0 -85 -4 -85 -10 0 -5 -11 -10 -24 -10 -14 0 -28 5 -31 10 -3 6
-35 10 -70 10 -35 0 -67 -4 -70 -10 -3 -5 -19 -10 -36 -10 -16 0 -29 5 -29 10
0 6 -28 10 -63 10 -52 0 -67 -4 -82 -20 -29 -32 -57 -21 -86 33 -44 82 -109
131 -170 129 -21 -1 -39 3 -39 8 0 11 -20 11 -68 0z"/>
<path d="M1546 3704 c-30 -31 -54 -61 -53 -67 1 -7 -3 -11 -10 -10 -6 1 -36
-23 -67 -53 l-56 -56 0 -64 c0 -36 4 -64 10 -64 6 0 10 -13 10 -29 0 -17 -4
-33 -10 -36 -12 -8 -13 -135 -1 -135 17 0 21 -33 6 -56 -17 -26 -21 -139 -5
-149 6 -3 10 -17 10 -30 0 -13 -4 -27 -10 -30 -5 -3 -10 -35 -10 -71 0 -36 4
-64 10 -64 6 0 10 -13 10 -29 0 -17 -4 -33 -10 -36 -5 -3 -10 -35 -10 -71 0
-36 4 -64 10 -64 6 0 10 -13 10 -29 0 -17 -4 -33 -10 -36 -12 -8 -13 -135 -1
-135 17 0 21 -33 6 -56 -17 -26 -21 -144 -5 -144 6 0 10 -13 10 -29 0 -17 -4
-33 -10 -36 -12 -8 -13 -135 -1 -135 17 0 21 -33 6 -56 -17 -26 -21 -144 -5
-144 6 0 10 -13 10 -29 0 -17 -4 -33 -10 -36 -12 -8 -13 -135 -1 -135 17 0 21
-33 6 -56 -10 -16 -15 -48 -15 -99 l0 -75 59 0 c33 0 63 5 66 10 8 13 65 13
65 0 0 -16 118 -12 144 5 23 15 56 11 56 -6 0 -12 127 -11 135 1 8 13 65 13
65 0 0 -16 118 -12 144 5 23 15 56 11 56 -6 0 -12 127 -11 135 1 8 13 65 13
65 0 0 -16 118 -12 144 5 23 15 56 11 56 -6 0 -12 127 -11 135 1 8 13 65 13
65 0 0 -16 118 -12 144 5 23 15 56 11 56 -6 0 -12 127 -11 135 1 8 13 65 13
65 0 0 -16 118 -12 144 5 23 15 56 11 56 -6 0 -15 119 -10 144 6 23 15 56 11
56 -6 0 -5 31 -9 70 -9 66 0 71 2 105 35 33 34 35 39 35 105 0 39 -4 70 -9 70
-17 0 -19 28 -5 55 15 30 19 145 5 145 -17 0 -21 33 -6 56 17 26 21 144 5 144
-5 0 -10 13 -10 29 0 17 5 33 10 36 12 8 13 135 1 135 -17 0 -21 33 -6 56 17
26 21 144 5 144 -13 0 -13 57 0 65 6 3 10 35 10 71 0 36 -4 64 -10 64 -5 0
-10 13 -10 29 0 17 5 33 10 36 6 3 10 35 10 70 0 35 -4 67 -10 70 -5 3 -10 17
-10 30 0 13 5 27 10 30 6 3 10 35 10 71 0 36 -4 64 -10 64 -5 0 -10 13 -10 29
0 17 5 33 10 36 6 3 10 35 10 70 0 35 -4 67 -10 70 -5 3 -10 17 -10 30 0 13 5
27 10 30 12 8 13 135 1 135 -17 0 -21 33 -6 56 17 26 21 144 5 144 -5 0 -10
13 -10 29 0 17 5 33 10 36 6 3 10 33 10 66 l0 59 -75 0 c-51 0 -83 -5 -99 -15
-23 -15 -56 -11 -56 6 0 12 -127 11 -135 -1 -3 -5 -19 -10 -36 -10 -16 0 -29
5 -29 10 0 16 -118 12 -144 -5 -23 -15 -56 -11 -56 6 0 12 -127 11 -135 -1 -3
-5 -19 -10 -36 -10 -16 0 -29 5 -29 10 0 16 -118 12 -144 -5 -23 -15 -56 -11
-56 6 0 12 -127 11 -135 -1 -3 -5 -19 -10 -36 -10 -16 0 -29 5 -29 10 0 16
-118 12 -144 -5 -23 -15 -56 -11 -56 6 0 12 -127 11 -135 -1 -3 -5 -19 -10
-36 -10 -16 0 -29 5 -29 10 0 16 -118 12 -144 -5 -23 -15 -56 -11 -56 6 0 12
-127 11 -135 -1 -3 -5 -19 -10 -36 -10 -16 0 -29 5 -29 10 0 6 -28 10 -64 10
l-64 0 -56 -56z m2052 -80 c23 -16 29 -48 12 -59 -12 -8 -13 -135 -1 -135 17
0 21 -33 6 -56 -17 -26 -21 -139 -5 -149 6 -3 10 -17 10 -30 0 -13 -4 -27 -10
-30 -5 -3 -10 -35 -10 -71 0 -36 4 -64 10 -64 6 0 10 -13 10 -29 0 -17 -4 -33
-10 -36 -5 -3 -10 -35 -10 -70 0 -35 5 -67 10 -70 6 -3 10 -17 10 -30 0 -13
-4 -27 -10 -30 -5 -3 -10 -35 -10 -70 0 -35 5 -67 10 -70 6 -3 10 -17 10 -30
0 -13 -4 -27 -10 -30 -5 -3 -10 -35 -10 -71 0 -36 4 -64 10 -64 6 0 10 -13 10
-29 0 -17 -4 -33 -10 -36 -12 -8 -13 -135 -1 -135 17 0 21 -33 6 -56 -17 -26
-21 -144 -5 -144 6 0 10 -13 10 -29 0 -17 -4 -33 -10 -36 -12 -8 -13 -135 -1
-135 17 0 21 -33 6 -56 -20 -30 -21 -140 -1 -147 23 -9 26 -57 5 -70 -11 -7
-19 -17 -19 -24 0 -7 -6 -13 -13 -13 -7 0 -17 -8 -24 -19 -13 -21 -61 -18 -70
5 -7 20 -117 19 -147 -1 -23 -15 -56 -11 -56 6 0 12 -127 11 -135 -1 -8 -13
-65 -13 -65 0 0 16 -118 12 -144 -5 -23 -15 -56 -11 -56 6 0 12 -127 11 -135
-1 -8 -13 -65 -13 -65 0 0 16 -118 12 -144 -5 -23 -15 -56 -11 -56 6 0 12
-127 11 -135 -1 -8 -13 -65 -13 -65 0 0 16 -118 12 -144 -5 -23 -15 -56 -11
-56 6 0 12 -127 11 -135 -1 -8 -13 -65 -13 -65 0 0 16 -118 12 -144 -5 -23
-15 -56 -11 -56 6 0 12 -127 11 -135 -1 -11 -19 -44 -10 -61 16 -16 24 -16 26
5 54 16 22 21 43 21 90 0 33 -4 60 -10 60 -5 0 -10 13 -10 29 0 17 5 33 10 36
12 8 13 135 1 135 -17 0 -21 33 -6 56 17 26 21 144 5 144 -5 0 -10 13 -10 29
0 17 5 33 10 36 12 8 13 135 1 135 -17 0 -21 33 -6 56 17 26 21 139 5 149 -5
3 -10 17 -10 30 0 13 5 27 10 30 13 8 13 132 0 140 -13 8 -13 52 0 60 13 8 13
132 0 140 -13 8 -13 52 0 60 12 8 13 135 1 135 -17 0 -21 33 -6 56 17 26 21
144 5 144 -13 0 -13 57 0 65 6 3 10 27 10 53 0 43 4 51 52 99 48 49 56 53 100
53 26 0 50 5 53 10 3 6 19 10 36 10 16 0 29 -4 29 -10 0 -16 118 -12 144 5 23
15 56 11 56 -6 0 -12 127 -11 135 1 3 6 17 10 30 10 13 0 27 -4 30 -10 10 -16
123 -12 149 5 23 15 56 11 56 -6 0 -12 127 -11 135 1 3 6 19 10 36 10 16 0 29
-4 29 -10 0 -16 118 -12 144 5 23 15 56 11 56 -6 0 -12 127 -11 135 1 3 6 19
10 36 10 16 0 29 -4 29 -10 0 -16 118 -12 144 5 23 15 56 11 56 -6 0 -12 127
-11 135 1 3 6 19 10 36 10 16 0 29 -4 29 -10 0 -6 27 -10 61 -10 46 0 67 5 86
20 31 24 33 24 61 4z"/>
<path d="M1865 3420 c-16 -11 -38 -19 -47 -16 -10 2 -18 0 -18 -5 0 -5 -6 -9
-13 -9 -16 0 -57 -42 -57 -58 0 -7 -5 -12 -11 -12 -5 0 -7 -5 -4 -10 3 -6 -4
-30 -16 -55 -21 -41 -21 -49 -10 -99 16 -70 45 -113 103 -152 43 -29 54 -32
125 -31 87 0 130 16 174 64 44 47 56 82 57 163 0 61 -5 83 -24 116 -32 56 -75
90 -136 109 -68 20 -87 19 -123 -5z m116 -169 c17 -18 29 -40 29 -56 0 -35
-50 -85 -85 -85 -38 0 -85 50 -85 90 0 74 86 105 141 51z"/>
<path d="M2324 3388 c3 -29 6 -57 7 -63 1 -5 -2 -18 -6 -27 -6 -15 -2 -18 29
-18 20 0 47 7 60 15 23 15 56 11 56 -6 0 -12 127 -11 135 1 3 6 19 10 36 10
16 0 29 -4 29 -10 0 -16 118 -12 144 5 23 15 56 11 56 -6 0 -12 127 -11 135 1
3 6 19 10 36 10 16 0 29 -4 29 -10 0 -6 28 -10 64 -10 36 0 68 5 71 10 3 6 17
10 30 10 13 0 27 -4 30 -10 3 -5 34 -10 69 -10 84 0 106 22 106 103 l0 57 -79
0 c-44 0 -83 -4 -86 -10 -3 -5 -19 -10 -36 -10 -16 0 -29 5 -29 10 0 6 -28 10
-64 10 -36 0 -68 -4 -71 -10 -3 -5 -19 -10 -36 -10 -16 0 -29 5 -29 10 0 16
-118 12 -144 -5 -23 -15 -56 -11 -56 6 0 12 -127 11 -135 -1 -3 -5 -19 -10
-36 -10 -16 0 -29 5 -29 10 0 6 -28 10 -64 10 -36 0 -68 -4 -71 -10 -3 -5 -17
-10 -30 -10 -13 0 -27 5 -30 10 -3 6 -27 10 -52 10 l-45 0 6 -52z"/>
<path d="M2342 3097 c-17 -18 -22 -36 -22 -80 l0 -57 80 0 c47 0 89 5 100 12
16 10 24 10 40 0 24 -14 136 -16 145 -2 3 6 17 10 30 10 13 0 27 -4 30 -10 3
-5 35 -10 70 -10 35 0 67 5 70 10 3 6 17 10 30 10 13 0 27 -4 30 -10 3 -5 34
-10 69 -10 84 0 106 22 106 103 l0 57 -79 0 c-44 0 -83 -4 -86 -10 -3 -5 -19
-10 -36 -10 -16 0 -29 5 -29 10 0 6 -28 10 -64 10 -36 0 -68 -4 -71 -10 -3 -5
-19 -10 -36 -10 -16 0 -29 5 -29 10 0 6 -28 10 -64 10 -36 0 -68 -4 -71 -10
-3 -5 -17 -10 -30 -10 -13 0 -27 5 -30 10 -3 6 -34 10 -69 10 -52 0 -66 -4
-84 -23z"/>
<path d="M3315 3085 c-29 -30 -35 -43 -35 -78 l0 -42 80 -3 80 -2 -2 80 -3 80
-42 0 c-35 0 -48 -6 -78 -35z"/>
<path d="M1702 2457 c-18 -19 -22 -35 -22 -85 0 -34 4 -62 9 -62 17 0 21 -33
6 -56 -17 -26 -21 -144 -5 -144 6 0 10 -13 10 -29 0 -17 -4 -33 -10 -36 -12
-8 -13 -135 -1 -135 17 0 21 -33 6 -56 -10 -16 -15 -48 -15 -99 l0 -75 59 0
c33 0 63 5 66 10 3 6 19 10 36 10 16 0 29 -4 29 -10 0 -16 118 -12 144 5 23
15 56 11 56 -6 0 -12 127 -11 135 1 3 6 19 10 36 10 16 0 29 -4 29 -10 0 -16
118 -12 144 5 23 15 56 11 56 -6 0 -12 127 -11 135 1 3 6 19 10 36 10 16 0 29
-4 29 -10 0 -16 118 -12 144 5 23 15 56 11 56 -6 0 -12 127 -11 135 1 3 6 19
10 36 10 16 0 29 -4 29 -10 0 -16 118 -12 144 5 23 15 56 11 56 -6 0 -5 28 -9
63 -9 86 0 107 21 107 108 0 34 -4 62 -9 62 -17 0 -21 33 -6 56 17 26 21 144
5 144 -5 0 -10 13 -10 29 0 17 5 33 10 36 12 8 13 135 1 135 -17 0 -21 33 -6
56 10 16 15 48 15 99 l0 75 -59 0 c-33 0 -63 -4 -66 -10 -3 -5 -17 -10 -30
-10 -13 0 -27 5 -30 10 -3 6 -35 10 -70 10 -35 0 -67 -4 -70 -10 -3 -5 -17
-10 -30 -10 -13 0 -27 5 -30 10 -3 6 -35 10 -70 10 -35 0 -67 -4 -70 -10 -3
-5 -17 -10 -30 -10 -13 0 -27 5 -30 10 -3 6 -35 10 -70 10 -35 0 -67 -4 -70
-10 -3 -5 -17 -10 -30 -10 -13 0 -27 5 -30 10 -3 6 -35 10 -70 10 -35 0 -67
-4 -70 -10 -3 -5 -17 -10 -30 -10 -13 0 -27 5 -30 10 -3 6 -35 10 -70 10 -35
0 -67 -4 -70 -10 -3 -5 -17 -10 -30 -10 -13 0 -27 5 -30 10 -3 6 -35 10 -70
10 -35 0 -67 -4 -70 -10 -3 -5 -17 -10 -30 -10 -13 0 -27 5 -30 10 -3 6 -35
10 -70 10 -35 0 -67 -4 -70 -10 -3 -5 -19 -10 -36 -10 -16 0 -29 5 -29 10 0 6
-28 10 -63 10 -53 0 -67 -4 -85 -23z m163 -97 c-3 -5 3 -10 15 -10 11 0 23 -7
26 -15 5 -11 22 -15 69 -15 35 0 67 5 70 10 3 6 17 10 30 10 13 0 27 -4 30
-10 3 -5 35 -10 70 -10 35 0 67 5 70 10 3 6 17 10 30 10 13 0 27 -4 30 -10 3
-5 35 -10 70 -10 35 0 67 5 70 10 3 6 17 10 30 10 13 0 27 -4 30 -10 3 -5 35
-10 70 -10 35 0 67 5 70 10 3 6 17 10 30 10 13 0 27 -4 30 -10 3 -5 35 -10 70
-10 35 0 67 5 70 10 3 6 17 10 30 10 13 0 27 -4 30 -10 3 -5 35 -10 70 -10 35
0 67 5 70 10 3 6 19 10 36 10 16 0 29 -4 29 -10 0 -14 116 -12 140 2 15 10 25
10 38 2 23 -15 28 -67 8 -84 -18 -14 -23 -140 -6 -140 6 0 10 -13 10 -29 0
-17 -4 -33 -10 -36 -5 -3 -10 -33 -10 -66 0 -48 4 -63 22 -81 13 -13 26 -22
30 -21 20 7 4 -25 -29 -59 -33 -34 -67 -51 -60 -30 1 4 -8 17 -21 30 -18 18
-33 22 -81 22 -33 0 -63 -4 -66 -10 -3 -5 -17 -10 -30 -10 -13 0 -27 5 -30 10
-3 6 -35 10 -70 10 -35 0 -67 -4 -70 -10 -3 -5 -17 -10 -30 -10 -13 0 -27 5
-30 10 -3 6 -35 10 -70 10 -35 0 -67 -4 -70 -10 -8 -13 -52 -13 -60 0 -3 6
-35 10 -70 10 -35 0 -67 -4 -70 -10 -3 -5 -17 -10 -30 -10 -13 0 -27 5 -30 10
-3 6 -35 10 -70 10 -35 0 -67 -4 -70 -10 -3 -5 -17 -10 -30 -10 -13 0 -27 5
-30 10 -10 16 -123 12 -149 -5 -23 -15 -56 -11 -56 6 0 12 -127 11 -135 -1
-11 -19 -44 -10 -61 16 -16 24 -16 26 5 54 16 22 21 43 21 90 0 33 -4 60 -10
60 -5 0 -10 13 -10 29 0 17 5 33 10 36 6 3 10 35 10 70 0 47 -4 64 -15 69 -8
3 -15 15 -15 27 0 18 -2 19 -15 9 -29 -24 -15 8 19 44 30 33 66 51 51 26z"/>
<path d="M4785 3744 c-12 -9 -30 -12 -47 -9 -15 4 -39 0 -56 -9 -34 -18 -87
-76 -97 -105 -6 -19 -14 -21 -75 -21 -38 0 -72 -4 -75 -10 -3 -5 -19 -10 -36
-10 -16 0 -29 5 -29 10 0 6 -28 10 -64 10 -36 0 -68 -4 -71 -10 -3 -5 -17 -10
-30 -10 -13 0 -27 5 -30 10 -3 6 -35 10 -70 10 -35 0 -67 -4 -70 -10 -3 -5
-17 -10 -30 -10 -13 0 -27 5 -30 10 -3 6 -17 10 -31 10 -27 0 -33 -27 -12 -60
10 -16 10 -24 0 -40 -6 -11 -12 -29 -12 -40 0 -23 29 -27 60 -8 16 10 24 10
40 0 28 -17 126 -15 154 3 23 15 56 11 56 -6 0 -15 119 -10 144 6 23 15 56 11
56 -6 0 -5 33 -9 73 -9 l72 -1 27 -44 c31 -50 86 -89 153 -106 41 -10 47 -10
59 6 10 14 21 16 48 11 31 -6 42 -2 78 26 45 36 94 103 67 92 -9 -3 -21 4 -30
16 -11 15 -17 18 -22 9 -6 -8 -10 -7 -17 5 -7 13 -5 23 7 36 9 10 19 43 22 76
3 33 10 67 15 77 12 23 -25 67 -54 67 -11 0 -17 4 -13 10 3 5 -18 16 -47 25
-62 18 -58 18 -83 -1z m72 -166 c13 -12 23 -31 23 -43 0 -11 5 -26 11 -32 9
-9 4 -19 -18 -42 -27 -26 -36 -29 -69 -24 -54 8 -84 38 -84 82 0 72 84 109
137 59z"/>
<path d="M688 3257 c-34 -29 -48 -58 -48 -101 0 -40 2 -41 32 -25 14 8 23 8
31 0 14 -14 134 -15 142 -1 3 6 19 10 36 10 16 0 29 -4 29 -10 0 -6 28 -10 64
-10 36 0 68 5 71 10 3 6 17 10 30 10 13 0 27 -4 30 -10 3 -5 27 -10 52 -10
l45 0 -6 53 c-3 28 -6 57 -7 62 -1 6 2 18 6 28 6 14 2 17 -29 17 -20 0 -47 -7
-60 -15 -23 -15 -56 -11 -56 6 0 12 -127 11 -135 -1 -3 -5 -19 -10 -36 -10
-16 0 -29 5 -29 10 0 6 -29 10 -67 10 -56 0 -73 -4 -95 -23z"/>
<path d="M3920 3200 l0 -80 59 0 c33 0 63 5 66 10 3 6 19 10 36 10 16 0 29 -4
29 -10 0 -16 118 -12 144 5 23 15 56 11 56 -6 0 -5 28 -9 63 -9 85 0 107 21
107 103 l0 57 -75 0 c-51 0 -83 -5 -99 -15 -23 -15 -56 -11 -56 6 0 12 -127
11 -135 -1 -3 -5 -17 -10 -30 -10 -13 0 -27 5 -30 10 -3 6 -35 10 -71 10 l-64
0 0 -80z"/>
<path d="M4760 3105 c-36 -21 -65 -33 -85 -37 -25 -4 -60 -39 -62 -61 -3 -34
-32 -67 -58 -67 -14 0 -25 5 -25 10 0 17 -126 12 -140 -5 -7 -8 -21 -15 -32
-15 -10 0 -21 7 -24 15 -5 11 -22 15 -69 15 -35 0 -67 -4 -70 -10 -3 -5 -19
-10 -36 -10 -16 0 -29 5 -29 10 0 17 -128 12 -156 -6 -33 -22 -54 -64 -54
-109 0 -39 2 -40 32 -24 14 8 23 8 31 0 14 -14 134 -15 142 -1 3 6 19 10 36
10 16 0 29 -4 29 -10 0 -17 115 -12 150 8 30 16 32 16 44 0 17 -23 121 -25
150 -3 22 17 61 2 52 -20 -7 -20 46 -88 90 -116 52 -32 180 -36 236 -8 41 21
92 79 107 121 8 24 7 28 -8 28 -9 0 -26 6 -36 14 -20 14 -34 10 -92 -31 -46
-34 -92 -30 -131 10 -59 61 -31 147 47 147 40 0 111 -54 111 -84 0 -17 8 -12
45 26 27 28 51 45 59 42 11 -4 13 0 9 17 -3 12 -14 24 -25 26 -11 3 -18 14
-18 29 0 30 -53 71 -116 90 -59 17 -73 17 -104 -1z"/>
<path d="M215 3093 c-46 -23 -86 -64 -105 -107 l-18 -39 34 -18 c38 -19 48
-16 113 30 46 33 86 29 128 -11 42 -40 45 -87 8 -123 -28 -29 -85 -34 -106 -9
-7 9 -23 20 -36 25 -16 6 -23 17 -23 36 l-1 28 -24 -28 c-14 -15 -25 -35 -25
-43 0 -8 -8 -14 -18 -14 -18 0 -42 -18 -42 -31 0 -4 9 -9 19 -12 12 -3 21 -15
23 -33 4 -38 66 -81 140 -96 54 -11 60 -11 88 10 16 12 44 25 62 29 29 6 52
25 95 81 l18 23 140 -141 c77 -78 152 -148 167 -156 31 -16 144 -19 153 -4 3
6 17 10 30 10 13 0 27 -4 30 -10 3 -5 35 -10 71 -10 l64 0 0 80 0 80 -54 0
c-29 0 -66 -6 -81 -14 -27 -14 -55 -12 -55 5 0 5 -24 9 -54 9 -35 0 -58 5 -66
15 -7 8 -19 15 -27 15 -7 0 -16 8 -20 18 -3 9 -26 38 -52 65 l-45 47 83 0 c60
0 87 4 97 15 9 8 22 15 29 15 7 0 20 -7 29 -15 21 -21 129 -20 162 1 33 22 54
64 54 109 0 39 -2 40 -32 24 -14 -8 -23 -8 -31 0 -17 17 -124 14 -151 -4 -23
-15 -56 -11 -56 6 0 17 -117 10 -150 -8 -30 -17 -32 -17 -44 0 -18 24 -122 24
-148 0 -24 -21 -52 -7 -54 26 -2 31 -33 70 -82 105 -36 25 -50 29 -124 31 -59
2 -92 -2 -113 -12z"/>
<path d="M3924 2588 c3 -29 6 -57 7 -63 1 -5 -2 -18 -6 -27 -6 -15 -1 -18 31
-18 20 0 45 7 55 16 18 16 59 12 59 -7 0 -12 127 -12 135 1 3 6 19 10 36 10
16 0 29 -4 29 -10 0 -6 30 -10 70 -10 66 0 71 2 105 35 30 30 35 43 35 80 0
49 -1 50 -32 34 -14 -8 -23 -8 -31 0 -14 14 -134 15 -142 1 -3 -5 -19 -10 -36
-10 -16 0 -29 5 -29 10 0 6 -28 10 -64 10 -36 0 -68 -4 -71 -10 -3 -5 -17 -10
-30 -10 -13 0 -27 5 -30 10 -3 6 -27 10 -52 10 l-45 0 6 -52z"/>
<path d="M309 2464 c-9 -11 -23 -14 -49 -10 -43 7 -85 -16 -124 -67 l-27 -35
24 -24 c13 -13 29 -22 35 -20 18 6 25 -18 10 -36 -21 -26 -40 -90 -33 -112 3
-10 1 -29 -5 -41 -10 -17 -8 -25 11 -45 12 -13 28 -24 35 -24 6 0 17 -6 23
-14 7 -8 34 -20 61 -26 43 -10 52 -10 66 4 11 12 26 15 48 11 40 -8 105 37
138 95 l23 40 63 0 c39 0 71 6 86 15 23 15 56 11 56 -6 0 -15 119 -10 144 6
23 15 56 11 56 -6 0 -12 127 -11 135 1 3 6 17 10 30 10 13 0 27 -4 30 -10 3
-5 17 -10 31 -10 27 0 33 27 12 60 -10 16 -10 24 0 40 6 11 12 29 12 40 0 23
-29 27 -60 8 -16 -10 -24 -10 -40 0 -28 17 -126 15 -154 -3 -23 -15 -56 -11
-56 6 0 15 -119 10 -144 -6 -23 -15 -56 -11 -56 6 0 5 -33 9 -73 9 l-73 0 -23
40 c-28 50 -77 88 -137 106 -59 17 -59 17 -75 -2z m69 -167 c16 -15 22 -32 22
-60 0 -54 -22 -77 -75 -77 -51 0 -80 27 -90 86 -6 37 -3 44 20 62 32 25 88 20
123 -11z"/>
<path d="M4732 2466 c-18 -6 -30 -14 -27 -18 3 -3 -12 -27 -35 -52 -22 -26
-40 -53 -40 -59 0 -7 -31 -43 -68 -80 -59 -58 -68 -64 -67 -44 0 13 6 31 13
39 11 14 9 20 -11 42 -20 22 -33 26 -76 26 -29 0 -62 -7 -75 -15 -23 -15 -56
-11 -56 6 0 15 -119 10 -144 -6 -23 -15 -56 -11 -56 6 0 5 -28 9 -63 9 -85 0
-107 -21 -107 -103 l0 -57 75 0 c51 0 83 5 99 15 23 15 56 11 56 -6 0 -15 119
-10 144 6 23 15 56 11 56 -6 0 -5 27 -9 61 -9 50 0 66 4 90 25 38 31 54 24 79
-34 32 -70 146 -161 165 -130 9 13 21 11 39 -6 11 -11 26 -14 56 -9 83 13 170
94 186 172 6 32 6 32 -33 32 -21 0 -44 5 -50 11 -8 8 -13 8 -17 0 -4 -6 -15
-11 -24 -11 -9 -1 -36 -18 -60 -39 -54 -47 -87 -45 -108 5 -22 52 -18 97 11
124 24 23 28 23 98 13 41 -6 79 -6 89 -2 9 5 32 11 50 13 18 3 34 5 36 5 11 3
-24 44 -44 51 -15 6 -24 16 -22 26 3 17 -41 44 -103 63 -44 14 -74 13 -117 -3z"/>
<path d="M640 1920 l0 -80 59 0 c33 0 63 5 66 10 3 6 19 10 36 10 16 0 29 -4
29 -10 0 -16 118 -12 144 5 23 15 56 11 56 -6 0 -5 28 -9 63 -9 85 0 107 21
107 103 l0 57 -75 0 c-51 0 -83 -5 -99 -15 -23 -15 -56 -11 -56 6 0 12 -127
11 -135 -1 -3 -5 -17 -10 -30 -10 -13 0 -27 5 -30 10 -3 6 -35 10 -71 10 l-64
0 0 -80z"/>
<path d="M3920 1980 c0 -11 6 -29 12 -40 10 -16 10 -24 0 -40 -19 -31 -15 -60
8 -60 11 0 29 6 40 12 16 10 24 10 40 0 28 -17 126 -15 154 3 23 15 56 11 56
-6 0 -16 119 -10 146 7 23 15 26 15 43 0 26 -23 61 -21 61 4 0 11 -6 29 -12
40 -10 16 -10 24 0 40 21 33 15 60 -12 60 -14 0 -28 -4 -31 -10 -3 -5 -17 -10
-31 -10 -13 0 -24 5 -24 10 0 16 -118 12 -144 -5 -23 -15 -56 -11 -56 6 0 12
-127 11 -135 -1 -3 -5 -17 -10 -30 -10 -13 0 -27 5 -30 10 -3 6 -17 10 -31 10
-17 0 -24 -5 -24 -20z"/>
<path d="M4745 1831 c-68 -17 -143 -78 -160 -130 -4 -15 -15 -21 -35 -21 -19
0 -29 -6 -33 -19 -3 -14 -11 -17 -32 -14 -14 3 -29 12 -32 19 -8 20 -126 19
-143 -1 -7 -8 -21 -15 -32 -15 -10 0 -21 7 -24 15 -5 11 -22 15 -69 15 -35 0
-67 -4 -70 -10 -3 -5 -17 -10 -30 -10 -13 0 -27 5 -30 10 -3 6 -35 10 -71 10
l-64 0 0 -80 0 -80 59 0 c33 0 63 5 66 10 3 6 19 10 36 10 16 0 29 -4 29 -10
0 -6 28 -10 64 -10 l64 0 7 39 c8 46 39 81 57 63 9 -9 7 -17 -7 -32 -15 -17
-16 -20 -3 -15 10 4 29 -5 50 -24 26 -22 38 -27 46 -19 8 8 13 7 18 -6 12 -30
-343 -376 -385 -376 -7 0 -9 5 -6 10 3 6 -3 10 -15 10 -11 0 -23 7 -26 15 -8
20 -111 20 -149 1 -27 -14 -55 -12 -55 5 0 12 -127 11 -135 -1 -8 -13 -52 -13
-60 0 -3 6 -35 10 -71 10 l-64 0 0 -80 0 -80 59 0 c33 0 63 5 66 10 8 13 52
13 60 0 8 -13 132 -13 140 0 8 13 52 13 60 0 8 -13 132 -13 140 0 8 13 52 13
60 0 3 -5 24 -10 47 -10 40 0 45 5 272 235 l231 235 43 -54 c24 -30 56 -58 70
-64 81 -28 106 -33 143 -27 36 6 43 12 58 49 10 23 26 47 35 55 26 22 18 155
-9 145 -7 -3 -16 0 -20 6 -9 15 64 91 85 88 8 -2 16 2 16 7 3 20 -9 35 -27 35
-10 0 -19 6 -19 14 0 8 -12 24 -27 36 -22 17 -36 20 -66 16 -28 -5 -39 -3 -43
9 -7 16 -21 17 -69 6z m85 -106 l-23 -25 24 0 c38 0 49 -19 49 -81 0 -50 -3
-60 -26 -78 -28 -22 -88 -28 -99 -11 -4 6 -11 8 -16 4 -15 -9 -39 15 -39 38 0
17 -3 18 -15 8 -8 -7 -15 -9 -15 -4 0 11 162 172 174 173 5 1 -1 -10 -14 -24z"/>
<path d="M914 1669 c-3 -6 -21 -9 -40 -7 -32 4 -43 -6 -240 -203 l-206 -206
-50 14 c-45 14 -51 13 -68 -2 -14 -13 -28 -16 -52 -11 -37 7 -92 -24 -128 -73
l-21 -31 25 -12 c14 -6 26 -16 26 -21 0 -5 6 -4 14 2 10 8 16 8 25 -3 9 -10 8
-16 -3 -25 -9 -7 -17 -40 -21 -79 -4 -37 -9 -76 -12 -87 -5 -18 -3 -18 21 4
28 26 37 13 10 -14 -9 -9 -24 -13 -35 -10 -13 4 -19 2 -19 -8 0 -22 35 -48 54
-41 12 5 19 0 23 -14 3 -15 19 -24 55 -33 45 -10 52 -10 60 5 8 14 18 16 47
11 30 -5 43 -1 77 24 55 39 87 92 79 130 -4 20 -1 34 11 45 15 16 16 22 2 71
l-15 53 186 186 186 186 67 0 c37 0 70 5 73 10 3 6 17 10 30 10 13 0 27 -4 30
-10 3 -5 27 -10 52 -10 l45 0 -6 53 c-3 28 -6 57 -7 62 -1 6 2 18 6 28 6 14 2
17 -29 17 -20 0 -47 -7 -60 -15 -23 -15 -56 -11 -56 6 0 13 -128 11 -136 -2z
m-536 -572 c31 -29 31 -95 -1 -125 -19 -18 -31 -21 -58 -16 -38 7 -79 40 -79
62 0 9 -7 23 -15 32 -14 16 -13 20 11 50 26 30 30 31 73 25 25 -4 56 -16 69
-28z"/>
<path d="M5017 1584 c-11 -14 -17 -28 -14 -30 7 -8 37 26 37 42 0 19 -2 18
-23 -12z"/>
<path d="M1520 1176 c0 -14 5 -28 10 -31 6 -3 10 -17 10 -30 0 -13 -4 -27 -10
-30 -5 -3 -10 -35 -10 -70 0 -35 5 -67 10 -70 6 -3 10 -17 10 -30 0 -13 -4
-27 -10 -30 -5 -3 -10 -35 -10 -70 0 -35 5 -67 10 -70 6 -3 10 -17 10 -30 0
-13 -4 -27 -10 -30 -5 -3 -10 -37 -10 -75 0 -61 -2 -69 -21 -75 -30 -10 -88
-63 -105 -98 -9 -17 -14 -42 -11 -57 4 -16 0 -36 -9 -49 -14 -19 -14 -27 1
-76 8 -30 20 -55 25 -55 6 0 10 -5 10 -12 0 -6 9 -22 21 -34 16 -18 28 -21 55
-17 48 8 68 -2 54 -27 -6 -11 -7 -20 -2 -20 13 0 33 25 26 32 -10 10 83 66 96
58 7 -4 10 -12 7 -18 -4 -5 2 -17 13 -27 11 -10 16 -23 13 -29 -18 -28 66 37
95 74 28 36 32 47 26 78 -5 27 -3 38 11 48 16 12 16 18 6 59 -17 67 -56 122
-106 153 l-44 27 -1 73 c0 41 -4 72 -10 72 -5 0 -10 13 -10 29 0 17 5 33 10
36 12 8 13 135 1 135 -17 0 -21 33 -6 56 18 28 20 126 3 154 -10 16 -10 24 0
40 19 31 15 60 -8 60 -11 0 -29 -6 -40 -12 -16 -10 -24 -10 -40 0 -33 21 -60
15 -60 -12z m137 -798 c31 -35 36 -91 11 -123 -18 -23 -25 -26 -62 -20 -55 9
-86 39 -86 84 0 73 89 111 137 59z"/>
<path d="M1840 1136 c0 -36 5 -68 10 -71 6 -3 10 -17 10 -30 0 -13 -4 -27 -10
-30 -15 -10 -12 -118 5 -151 8 -16 78 -92 155 -168 137 -137 139 -140 120
-158 -10 -10 -21 -18 -24 -18 -12 0 -51 -48 -54 -66 -2 -10 -10 -30 -17 -44
-35 -64 -37 -74 -25 -127 13 -61 62 -133 90 -133 10 0 24 -8 29 -19 14 -25 51
-35 51 -13 0 9 19 36 42 59 35 36 39 43 22 43 -31 0 -84 71 -84 113 0 77 90
104 148 44 40 -41 42 -85 7 -131 -14 -18 -25 -38 -25 -43 0 -6 -7 -16 -16 -24
-14 -11 -14 -14 -1 -24 8 -5 17 -20 21 -32 6 -19 11 -20 35 -12 41 15 99 66
120 107 28 56 24 184 -8 235 -28 45 -83 89 -114 91 -25 1 -37 40 -18 59 13 13
15 137 2 137 -17 0 -21 33 -6 56 16 25 21 144 6 144 -17 0 -21 33 -6 56 18 27
21 134 4 151 -8 8 -8 17 0 31 16 30 15 32 -24 32 -45 0 -87 -21 -109 -54 -18
-28 -23 -156 -7 -156 18 0 23 -41 7 -59 -10 -11 -16 -42 -18 -99 l-3 -82 -77
76 -78 76 0 54 c0 30 -4 54 -10 54 -5 0 -10 13 -10 29 0 17 5 33 10 36 6 3 10
33 10 66 l0 59 -80 0 -80 0 0 -64z"/>
<path d="M2480 1157 c0 -25 5 -49 10 -52 6 -3 10 -17 10 -30 0 -13 -4 -27 -10
-30 -14 -9 -13 -135 1 -135 7 0 9 -12 6 -32 -4 -31 4 -41 122 -160 69 -70 131
-128 138 -128 17 0 36 -38 27 -53 -4 -6 2 -3 14 7 22 19 22 19 22 -1 0 -13
-15 -31 -41 -47 -22 -15 -54 -40 -71 -56 -17 -16 -34 -28 -38 -25 -11 7 -33
-81 -27 -107 18 -76 26 -98 41 -119 9 -13 21 -25 26 -25 6 -1 15 -2 20 -3 6 0
10 -7 10 -15 0 -14 36 -46 52 -46 3 0 6 13 6 28 -1 15 5 38 11 51 9 17 10 35
2 72 -16 75 -14 103 12 127 26 24 67 28 116 11 34 -12 33 -11 36 -52 1 -20 -9
-40 -38 -73 -22 -25 -37 -48 -33 -51 3 -3 2 -11 -2 -17 -5 -6 -7 -33 -4 -60
l4 -48 35 5 c51 9 110 51 142 102 31 48 48 124 32 135 -6 3 -10 22 -9 42 2 58
-50 126 -125 164 -58 30 -66 47 -38 84 16 22 21 44 21 90 0 33 -4 60 -9 60
-17 0 -21 33 -6 56 16 25 21 144 6 144 -17 0 -21 33 -6 56 10 16 15 48 15 99
l0 75 -58 0 c-81 0 -102 -22 -102 -108 0 -34 4 -62 9 -62 19 0 23 -41 7 -59
-22 -24 -22 -126 -1 -135 38 -14 -4 -94 -43 -82 -12 4 -25 18 -28 30 -3 13
-28 45 -55 71 l-49 47 0 73 c0 56 -4 74 -15 79 -8 3 -15 14 -15 24 0 11 7 25
15 32 9 7 15 29 15 52 0 34 -3 39 -17 33 -10 -4 -22 -7 -28 -6 -5 1 -34 4 -62
7 l-53 6 0 -45z m358 -389 c-8 -12 -25 -28 -39 -37 -18 -11 -16 -6 10 22 39
42 50 48 29 15z m71 -156 c9 7 -4 -9 -29 -36 -40 -42 -45 -45 -48 -26 -4 27
37 75 52 60 6 -6 15 -6 25 2z"/>
<path d="M3120 1176 c0 -14 5 -28 10 -31 6 -3 10 -17 10 -30 0 -13 -4 -27 -10
-30 -13 -8 -13 -135 -1 -135 19 0 23 -41 7 -59 -9 -10 -16 -21 -16 -26 0 -4
95 -103 211 -219 l210 -210 -6 -37 c-4 -21 -2 -47 5 -58 8 -16 8 -27 -1 -42
-8 -16 -8 -32 0 -59 17 -58 116 -155 110 -107 -4 30 2 47 18 47 15 0 14 -2 -2
-20 -17 -19 -16 -19 21 -14 22 3 52 10 68 15 16 5 39 9 51 9 12 0 32 11 45 25
13 14 29 25 36 25 6 0 17 7 25 16 7 8 30 24 51 35 44 22 46 37 23 117 -18 61
-52 104 -109 137 -37 22 -50 24 -138 20 l-96 -3 -191 191 c-105 104 -191 196
-191 203 0 7 5 16 10 19 14 9 12 121 -2 145 -10 16 -10 24 0 40 19 31 15 60
-8 60 -11 0 -29 -6 -40 -12 -16 -10 -24 -10 -40 0 -33 21 -60 15 -60 -12z
m687 -788 c61 -59 33 -148 -46 -148 -48 0 -116 59 -106 91 5 15 4 19 -4 15
-19 -12 -12 2 20 39 42 48 89 49 136 3z"/>
<path d="M3914 209 c-24 -26 -25 -30 -7 -20 13 6 27 20 33 31 15 28 8 25 -26
-11z"/>
<path d="M3725 110 c-9 -15 3 -30 25 -30 13 0 17 5 13 20 -6 21 -28 27 -38 10z"/>
</g>
</svg>
